<?xml version="1.0" encoding="UTF-8" standalone="no"?>
<!DOCTYPE svg PUBLIC "-//W3C//DTD SVG 1.1//EN"
 "http://www.w3.org/Graphics/SVG/1.1/DTD/svg11.dtd">
<!-- Generated by graphviz version 2.43.0 (0)
 -->
<!-- Title: controllers_diagram Pages: 1 -->
<svg width="742pt" height="705pt"
 viewBox="0.00 0.00 742.00 705.00" xmlns="http://www.w3.org/2000/svg" xmlns:xlink="http://www.w3.org/1999/xlink">
<g id="graph0" class="graph" transform="scale(1 1) rotate(0) translate(4 701)">
<title>controllers_diagram</title>
<polygon fill="transparent" stroke="transparent" points="-4,4 -4,-701 738,-701 738,4 -4,4"/>
<!-- _diagram_info -->
<g id="node1" class="node">
<title>_diagram_info</title>
<text text-anchor="start" x="440" y="-477.6" font-family="Times,serif" font-size="13.00">Controllers diagram</text>
<text text-anchor="start" x="440" y="-463.6" font-family="Times,serif" font-size="13.00">Date: Jan 24 2022 &#45; 05:25</text>
<text text-anchor="start" x="440" y="-449.6" font-family="Times,serif" font-size="13.00">Migration version: 20220109121358</text>
<text text-anchor="start" x="440" y="-435.6" font-family="Times,serif" font-size="13.00">Generated by RailRoady 1.6.0</text>
<text text-anchor="start" x="440" y="-421.6" font-family="Times,serif" font-size="13.00">http://railroady.prestonlee.com</text>
</g>
<!-- AlbumsController -->
<g id="node2" class="node">
<title>AlbumsController</title>
<path fill="none" stroke="black" d="M210,-144.5C210,-144.5 361,-144.5 361,-144.5 367,-144.5 373,-150.5 373,-156.5 373,-156.5 373,-360.5 373,-360.5 373,-366.5 367,-372.5 361,-372.5 361,-372.5 210,-372.5 210,-372.5 204,-372.5 198,-366.5 198,-360.5 198,-360.5 198,-156.5 198,-156.5 198,-150.5 204,-144.5 210,-144.5"/>
<text text-anchor="middle" x="285.5" y="-357.3" font-family="Times,serif" font-size="14.00">AlbumsController</text>
<polyline fill="none" stroke="black" points="198,-349.5 373,-349.5 "/>
<text text-anchor="start" x="206" y="-334.3" font-family="Times,serif" font-size="14.00">_searched_api_albums</text>
<text text-anchor="start" x="206" y="-319.3" font-family="Times,serif" font-size="14.00">create</text>
<text text-anchor="start" x="206" y="-304.3" font-family="Times,serif" font-size="14.00">destroy</text>
<text text-anchor="start" x="206" y="-289.3" font-family="Times,serif" font-size="14.00">edit</text>
<text text-anchor="start" x="206" y="-274.3" font-family="Times,serif" font-size="14.00">index</text>
<text text-anchor="start" x="206" y="-259.3" font-family="Times,serif" font-size="14.00">new</text>
<text text-anchor="start" x="206" y="-244.3" font-family="Times,serif" font-size="14.00">show</text>
<text text-anchor="start" x="206" y="-229.3" font-family="Times,serif" font-size="14.00">update</text>
<polyline fill="none" stroke="black" points="198,-221.5 373,-221.5 "/>
<polyline fill="none" stroke="black" points="198,-197.5 373,-197.5 "/>
<text text-anchor="start" x="206" y="-182.3" font-family="Times,serif" font-size="14.00">_layout</text>
<text text-anchor="start" x="206" y="-167.3" font-family="Times,serif" font-size="14.00">album_params</text>
<text text-anchor="start" x="206" y="-152.3" font-family="Times,serif" font-size="14.00">set_album</text>
</g>
<!-- ApplicationController -->
<g id="node3" class="node">
<title>ApplicationController</title>
<path fill="none" stroke="black" d="M300,-0.5C300,-0.5 446,-0.5 446,-0.5 452,-0.5 458,-6.5 458,-12.5 458,-12.5 458,-97.5 458,-97.5 458,-103.5 452,-109.5 446,-109.5 446,-109.5 300,-109.5 300,-109.5 294,-109.5 288,-103.5 288,-97.5 288,-97.5 288,-12.5 288,-12.5 288,-6.5 294,-0.5 300,-0.5"/>
<text text-anchor="middle" x="373" y="-94.3" font-family="Times,serif" font-size="14.00">ApplicationController</text>
<polyline fill="none" stroke="black" points="288,-86.5 458,-86.5 "/>
<polyline fill="none" stroke="black" points="288,-62.5 458,-62.5 "/>
<polyline fill="none" stroke="black" points="288,-38.5 458,-38.5 "/>
<text text-anchor="start" x="296" y="-23.3" font-family="Times,serif" font-size="14.00">_layout</text>
<text text-anchor="start" x="296" y="-8.3" font-family="Times,serif" font-size="14.00">user_not_authorized</text>
</g>
<!-- CommentsController -->
<g id="node4" class="node">
<title>CommentsController</title>
<path fill="none" stroke="black" d="M498,-0.5C498,-0.5 640,-0.5 640,-0.5 646,-0.5 652,-6.5 652,-12.5 652,-12.5 652,-96.5 652,-96.5 652,-102.5 646,-108.5 640,-108.5 640,-108.5 498,-108.5 498,-108.5 492,-108.5 486,-102.5 486,-96.5 486,-96.5 486,-12.5 486,-12.5 486,-6.5 492,-0.5 498,-0.5"/>
<text text-anchor="middle" x="569" y="-93.3" font-family="Times,serif" font-size="14.00">CommentsController</text>
<polyline fill="none" stroke="black" points="486,-85.5 652,-85.5 "/>
<text text-anchor="start" x="494" y="-70.3" font-family="Times,serif" font-size="14.00">create</text>
<polyline fill="none" stroke="black" points="486,-62.5 652,-62.5 "/>
<polyline fill="none" stroke="black" points="486,-38.5 652,-38.5 "/>
<text text-anchor="start" x="494" y="-23.3" font-family="Times,serif" font-size="14.00">_layout</text>
<text text-anchor="start" x="494" y="-8.3" font-family="Times,serif" font-size="14.00">comment_params</text>
</g>
<!-- DislikesController -->
<g id="node5" class="node">
<title>DislikesController</title>
<path fill="none" stroke="black" d="M30,-108.5C30,-108.5 152,-108.5 152,-108.5 158,-108.5 164,-114.5 164,-120.5 164,-120.5 164,-219.5 164,-219.5 164,-225.5 158,-231.5 152,-231.5 152,-231.5 30,-231.5 30,-231.5 24,-231.5 18,-225.5 18,-219.5 18,-219.5 18,-120.5 18,-120.5 18,-114.5 24,-108.5 30,-108.5"/>
<text text-anchor="middle" x="91" y="-216.3" font-family="Times,serif" font-size="14.00">DislikesController</text>
<polyline fill="none" stroke="black" points="18,-208.5 164,-208.5 "/>
<text text-anchor="start" x="26" y="-193.3" font-family="Times,serif" font-size="14.00">create</text>
<text text-anchor="start" x="26" y="-178.3" font-family="Times,serif" font-size="14.00">destroy</text>
<polyline fill="none" stroke="black" points="18,-170.5 164,-170.5 "/>
<polyline fill="none" stroke="black" points="18,-146.5 164,-146.5 "/>
<text text-anchor="start" x="26" y="-131.3" font-family="Times,serif" font-size="14.00">_layout</text>
<text text-anchor="start" x="26" y="-116.3" font-family="Times,serif" font-size="14.00">dislike_params</text>
</g>
<!-- LikesController -->
<g id="node6" class="node">
<title>LikesController</title>
<path fill="none" stroke="black" d="M606,-144.5C606,-144.5 709,-144.5 709,-144.5 715,-144.5 721,-150.5 721,-156.5 721,-156.5 721,-255.5 721,-255.5 721,-261.5 715,-267.5 709,-267.5 709,-267.5 606,-267.5 606,-267.5 600,-267.5 594,-261.5 594,-255.5 594,-255.5 594,-156.5 594,-156.5 594,-150.5 600,-144.5 606,-144.5"/>
<text text-anchor="middle" x="657.5" y="-252.3" font-family="Times,serif" font-size="14.00">LikesController</text>
<polyline fill="none" stroke="black" points="594,-244.5 721,-244.5 "/>
<text text-anchor="start" x="602" y="-229.3" font-family="Times,serif" font-size="14.00">create</text>
<text text-anchor="start" x="602" y="-214.3" font-family="Times,serif" font-size="14.00">destroy</text>
<polyline fill="none" stroke="black" points="594,-206.5 721,-206.5 "/>
<polyline fill="none" stroke="black" points="594,-182.5 721,-182.5 "/>
<text text-anchor="start" x="602" y="-167.3" font-family="Times,serif" font-size="14.00">_layout</text>
<text text-anchor="start" x="602" y="-152.3" font-family="Times,serif" font-size="14.00">like_params</text>
</g>
<!-- PagesController -->
<g id="node7" class="node">
<title>PagesController</title>
<path fill="none" stroke="black" d="M552,-522.5C552,-522.5 722,-522.5 722,-522.5 728,-522.5 734,-528.5 734,-534.5 734,-534.5 734,-633.5 734,-633.5 734,-639.5 728,-645.5 722,-645.5 722,-645.5 552,-645.5 552,-645.5 546,-645.5 540,-639.5 540,-633.5 540,-633.5 540,-534.5 540,-534.5 540,-528.5 546,-522.5 552,-522.5"/>
<text text-anchor="middle" x="637" y="-630.3" font-family="Times,serif" font-size="14.00">PagesController</text>
<polyline fill="none" stroke="black" points="540,-622.5 734,-622.5 "/>
<text text-anchor="start" x="548" y="-607.3" font-family="Times,serif" font-size="14.00">_pagy_filter_albums_grid</text>
<text text-anchor="start" x="548" y="-592.3" font-family="Times,serif" font-size="14.00">_searched_albums</text>
<text text-anchor="start" x="548" y="-577.3" font-family="Times,serif" font-size="14.00">home</text>
<polyline fill="none" stroke="black" points="540,-569.5 734,-569.5 "/>
<polyline fill="none" stroke="black" points="540,-545.5 734,-545.5 "/>
<text text-anchor="start" x="548" y="-530.3" font-family="Times,serif" font-size="14.00">_layout</text>
</g>
<!-- TracksController -->
<g id="node8" class="node">
<title>TracksController</title>
<path fill="none" stroke="black" d="M426,-144.5C426,-144.5 539,-144.5 539,-144.5 545,-144.5 551,-150.5 551,-156.5 551,-156.5 551,-360.5 551,-360.5 551,-366.5 545,-372.5 539,-372.5 539,-372.5 426,-372.5 426,-372.5 420,-372.5 414,-366.5 414,-360.5 414,-360.5 414,-156.5 414,-156.5 414,-150.5 420,-144.5 426,-144.5"/>
<text text-anchor="middle" x="482.5" y="-357.3" font-family="Times,serif" font-size="14.00">TracksController</text>
<polyline fill="none" stroke="black" points="414,-349.5 551,-349.5 "/>
<text text-anchor="start" x="422" y="-334.3" font-family="Times,serif" font-size="14.00">create</text>
<text text-anchor="start" x="422" y="-319.3" font-family="Times,serif" font-size="14.00">destroy</text>
<text text-anchor="start" x="422" y="-304.3" font-family="Times,serif" font-size="14.00">edit</text>
<text text-anchor="start" x="422" y="-289.3" font-family="Times,serif" font-size="14.00">index</text>
<text text-anchor="start" x="422" y="-274.3" font-family="Times,serif" font-size="14.00">new</text>
<text text-anchor="start" x="422" y="-259.3" font-family="Times,serif" font-size="14.00">show</text>
<text text-anchor="start" x="422" y="-244.3" font-family="Times,serif" font-size="14.00">update</text>
<polyline fill="none" stroke="black" points="414,-236.5 551,-236.5 "/>
<polyline fill="none" stroke="black" points="414,-212.5 551,-212.5 "/>
<text text-anchor="start" x="422" y="-197.3" font-family="Times,serif" font-size="14.00">_layout</text>
<text text-anchor="start" x="422" y="-182.3" font-family="Times,serif" font-size="14.00">album</text>
<text text-anchor="start" x="422" y="-167.3" font-family="Times,serif" font-size="14.00">set_track</text>
<text text-anchor="start" x="422" y="-152.3" font-family="Times,serif" font-size="14.00">track_params</text>
</g>
<!-- UserAlbumsController -->
<g id="node9" class="node">
<title>UserAlbumsController</title>
<path fill="none" stroke="black" d="M228,-414.5C228,-414.5 381,-414.5 381,-414.5 387,-414.5 393,-420.5 393,-426.5 393,-426.5 393,-555.5 393,-555.5 393,-561.5 387,-567.5 381,-567.5 381,-567.5 228,-567.5 228,-567.5 222,-567.5 216,-561.5 216,-555.5 216,-555.5 216,-426.5 216,-426.5 216,-420.5 222,-414.5 228,-414.5"/>
<text text-anchor="middle" x="304.5" y="-552.3" font-family="Times,serif" font-size="14.00">UserAlbumsController</text>
<polyline fill="none" stroke="black" points="216,-544.5 393,-544.5 "/>
<text text-anchor="start" x="224" y="-529.3" font-family="Times,serif" font-size="14.00">create</text>
<text text-anchor="start" x="224" y="-514.3" font-family="Times,serif" font-size="14.00">destroy</text>
<text text-anchor="start" x="224" y="-499.3" font-family="Times,serif" font-size="14.00">index</text>
<polyline fill="none" stroke="black" points="216,-491.5 393,-491.5 "/>
<polyline fill="none" stroke="black" points="216,-467.5 393,-467.5 "/>
<text text-anchor="start" x="224" y="-452.3" font-family="Times,serif" font-size="14.00">_layout</text>
<text text-anchor="start" x="224" y="-437.3" font-family="Times,serif" font-size="14.00">set_user_album</text>
<text text-anchor="start" x="224" y="-422.3" font-family="Times,serif" font-size="14.00">user_album_params</text>
</g>
<!-- UserProfilesController -->
<g id="node10" class="node">
<title>UserProfilesController</title>
<path fill="none" stroke="black" d="M12,-558.5C12,-558.5 166,-558.5 166,-558.5 172,-558.5 178,-564.5 178,-570.5 178,-570.5 178,-684.5 178,-684.5 178,-690.5 172,-696.5 166,-696.5 166,-696.5 12,-696.5 12,-696.5 6,-696.5 0,-690.5 0,-684.5 0,-684.5 0,-570.5 0,-570.5 0,-564.5 6,-558.5 12,-558.5"/>
<text text-anchor="middle" x="89" y="-681.3" font-family="Times,serif" font-size="14.00">UserProfilesController</text>
<polyline fill="none" stroke="black" points="0,-673.5 178,-673.5 "/>
<text text-anchor="start" x="8" y="-658.3" font-family="Times,serif" font-size="14.00">update</text>
<polyline fill="none" stroke="black" points="0,-650.5 178,-650.5 "/>
<polyline fill="none" stroke="black" points="0,-626.5 178,-626.5 "/>
<text text-anchor="start" x="8" y="-611.3" font-family="Times,serif" font-size="14.00">_layout</text>
<text text-anchor="start" x="8" y="-596.3" font-family="Times,serif" font-size="14.00">get_user_profile</text>
<text text-anchor="start" x="8" y="-581.3" font-family="Times,serif" font-size="14.00">set_user_profile</text>
<text text-anchor="start" x="8" y="-566.3" font-family="Times,serif" font-size="14.00">user_profile_params</text>
</g>
<!-- UsersController -->
<g id="node11" class="node">
<title>UsersController</title>
<path fill="none" stroke="black" d="M48,-270.5C48,-270.5 155,-270.5 155,-270.5 161,-270.5 167,-276.5 167,-282.5 167,-282.5 167,-411.5 167,-411.5 167,-417.5 161,-423.5 155,-423.5 155,-423.5 48,-423.5 48,-423.5 42,-423.5 36,-417.5 36,-411.5 36,-411.5 36,-282.5 36,-282.5 36,-276.5 42,-270.5 48,-270.5"/>
<text text-anchor="middle" x="101.5" y="-408.3" font-family="Times,serif" font-size="14.00">UsersController</text>
<polyline fill="none" stroke="black" points="36,-400.5 167,-400.5 "/>
<text text-anchor="start" x="44" y="-385.3" font-family="Times,serif" font-size="14.00">destroy</text>
<text text-anchor="start" x="44" y="-370.3" font-family="Times,serif" font-size="14.00">index</text>
<text text-anchor="start" x="44" y="-355.3" font-family="Times,serif" font-size="14.00">show</text>
<text text-anchor="start" x="44" y="-340.3" font-family="Times,serif" font-size="14.00">update</text>
<polyline fill="none" stroke="black" points="36,-332.5 167,-332.5 "/>
<polyline fill="none" stroke="black" points="36,-308.5 167,-308.5 "/>
<text text-anchor="start" x="44" y="-293.3" font-family="Times,serif" font-size="14.00">_layout</text>
<text text-anchor="start" x="44" y="-278.3" font-family="Times,serif" font-size="14.00">secure_params</text>
</g>
</g>
</svg>
