<?xml version="1.0" encoding="UTF-8" standalone="no"?>
<!DOCTYPE svg PUBLIC "-//W3C//DTD SVG 1.1//EN"
 "http://www.w3.org/Graphics/SVG/1.1/DTD/svg11.dtd">
<!-- Generated by graphviz version 2.43.0 (0)
 -->
<!-- Title: models_diagram Pages: 1 -->
<svg width="2392pt" height="997pt"
 viewBox="0.00 0.00 2392.00 997.00" xmlns="http://www.w3.org/2000/svg" xmlns:xlink="http://www.w3.org/1999/xlink">
<g id="graph0" class="graph" transform="scale(1 1) rotate(0) translate(4 993)">
<title>models_diagram</title>
<polygon fill="transparent" stroke="transparent" points="-4,4 -4,-993 2388,-993 2388,4 -4,4"/>
<!-- _diagram_info -->
<g id="node1" class="node">
<title>_diagram_info</title>
<text text-anchor="start" x="8" y="-915.1" font-family="Times,serif" font-size="13.00">Models diagram</text>
<text text-anchor="start" x="8" y="-901.1" font-family="Times,serif" font-size="13.00">Date: Jan 24 2022 &#45; 05:25</text>
<text text-anchor="start" x="8" y="-887.1" font-family="Times,serif" font-size="13.00">Migration version: 20220109121358</text>
<text text-anchor="start" x="8" y="-873.1" font-family="Times,serif" font-size="13.00">Generated by RailRoady 1.6.0</text>
<text text-anchor="start" x="8" y="-859.1" font-family="Times,serif" font-size="13.00">http://railroady.prestonlee.com</text>
</g>
<!-- AgeRestriction -->
<g id="node2" class="node">
<title>AgeRestriction</title>
<path fill="none" stroke="black" d="M289,-845C289,-845 600,-845 600,-845 606,-845 612,-851 612,-857 612,-857 612,-924 612,-924 612,-930 606,-936 600,-936 600,-936 289,-936 289,-936 283,-936 277,-930 277,-924 277,-924 277,-857 277,-857 277,-851 283,-845 289,-845"/>
<text text-anchor="middle" x="444.5" y="-920.8" font-family="Times,serif" font-size="14.00">AgeRestriction</text>
<polyline fill="none" stroke="black" points="277,-913 612,-913 "/>
<text text-anchor="start" x="285" y="-897.8" font-family="Times,serif" font-size="14.00">id :bigint</text>
<text text-anchor="start" x="285" y="-882.8" font-family="Times,serif" font-size="14.00">value :character varying</text>
<text text-anchor="start" x="285" y="-867.8" font-family="Times,serif" font-size="14.00">created_at :timestamp(6) without time zone</text>
<text text-anchor="start" x="285" y="-852.8" font-family="Times,serif" font-size="14.00">updated_at :timestamp(6) without time zone</text>
</g>
<!-- Album -->
<g id="node3" class="node">
<title>Album</title>
<path fill="none" stroke="black" d="M642,-792.5C642,-792.5 953,-792.5 953,-792.5 959,-792.5 965,-798.5 965,-804.5 965,-804.5 965,-976.5 965,-976.5 965,-982.5 959,-988.5 953,-988.5 953,-988.5 642,-988.5 642,-988.5 636,-988.5 630,-982.5 630,-976.5 630,-976.5 630,-804.5 630,-804.5 630,-798.5 636,-792.5 642,-792.5"/>
<text text-anchor="middle" x="797.5" y="-973.3" font-family="Times,serif" font-size="14.00">Album</text>
<polyline fill="none" stroke="black" points="630,-965.5 965,-965.5 "/>
<text text-anchor="start" x="638" y="-950.3" font-family="Times,serif" font-size="14.00">id :bigint</text>
<text text-anchor="start" x="638" y="-935.3" font-family="Times,serif" font-size="14.00">name :character varying</text>
<text text-anchor="start" x="638" y="-920.3" font-family="Times,serif" font-size="14.00">description :text</text>
<text text-anchor="start" x="638" y="-905.3" font-family="Times,serif" font-size="14.00">image_preview_url :character varying</text>
<text text-anchor="start" x="638" y="-890.3" font-family="Times,serif" font-size="14.00">release_date :date</text>
<text text-anchor="start" x="638" y="-875.3" font-family="Times,serif" font-size="14.00">created_at :timestamp(6) without time zone</text>
<text text-anchor="start" x="638" y="-860.3" font-family="Times,serif" font-size="14.00">updated_at :timestamp(6) without time zone</text>
<text text-anchor="start" x="638" y="-845.3" font-family="Times,serif" font-size="14.00">countries :character varying</text>
<text text-anchor="start" x="638" y="-830.3" font-family="Times,serif" font-size="14.00">main_genre :character varying</text>
<text text-anchor="start" x="638" y="-815.3" font-family="Times,serif" font-size="14.00">performer :character varying</text>
<text text-anchor="start" x="638" y="-800.3" font-family="Times,serif" font-size="14.00">age_restrictions :character varying</text>
</g>
<!-- Comment -->
<g id="node5" class="node">
<title>Comment</title>
<path fill="none" stroke="black" d="M469,-588.5C469,-588.5 780,-588.5 780,-588.5 786,-588.5 792,-594.5 792,-600.5 792,-600.5 792,-712.5 792,-712.5 792,-718.5 786,-724.5 780,-724.5 780,-724.5 469,-724.5 469,-724.5 463,-724.5 457,-718.5 457,-712.5 457,-712.5 457,-600.5 457,-600.5 457,-594.5 463,-588.5 469,-588.5"/>
<text text-anchor="middle" x="624.5" y="-709.3" font-family="Times,serif" font-size="14.00">Comment</text>
<polyline fill="none" stroke="black" points="457,-701.5 792,-701.5 "/>
<text text-anchor="start" x="465" y="-686.3" font-family="Times,serif" font-size="14.00">id :bigint</text>
<text text-anchor="start" x="465" y="-671.3" font-family="Times,serif" font-size="14.00">content :text</text>
<text text-anchor="start" x="465" y="-656.3" font-family="Times,serif" font-size="14.00">album_id :bigint</text>
<text text-anchor="start" x="465" y="-641.3" font-family="Times,serif" font-size="14.00">user_id :bigint</text>
<text text-anchor="start" x="465" y="-626.3" font-family="Times,serif" font-size="14.00">created_at :timestamp(6) without time zone</text>
<text text-anchor="start" x="465" y="-611.3" font-family="Times,serif" font-size="14.00">updated_at :timestamp(6) without time zone</text>
<text text-anchor="start" x="465" y="-596.3" font-family="Times,serif" font-size="14.00">parent_id :integer</text>
</g>
<!-- Album&#45;&gt;Comment -->
<g id="edge6" class="edge">
<title>Album&#45;&gt;Comment</title>
<path fill="none" stroke="#08686d" d="M719.12,-784.39C706.21,-767.07 693.05,-749.43 680.82,-733.02"/>
<polygon fill="#08686d" stroke="#08686d" points="719.16,-784.44 721.53,-795.15 722.15,-788.45 725.13,-792.46 725.13,-792.46 725.13,-792.46 722.15,-788.45 728.74,-789.77 719.16,-784.44 719.16,-784.44"/>
<polygon fill="#08686d" stroke="#08686d" points="680.49,-732.58 678.12,-721.88 677.5,-728.57 674.51,-724.57 674.51,-724.57 674.51,-724.57 677.5,-728.57 670.9,-727.26 680.49,-732.58 680.49,-732.58"/>
</g>
<!-- Dislike -->
<g id="node6" class="node">
<title>Dislike</title>
<path fill="none" stroke="black" d="M906,-603.5C906,-603.5 1217,-603.5 1217,-603.5 1223,-603.5 1229,-609.5 1229,-615.5 1229,-615.5 1229,-697.5 1229,-697.5 1229,-703.5 1223,-709.5 1217,-709.5 1217,-709.5 906,-709.5 906,-709.5 900,-709.5 894,-703.5 894,-697.5 894,-697.5 894,-615.5 894,-615.5 894,-609.5 900,-603.5 906,-603.5"/>
<text text-anchor="middle" x="1061.5" y="-694.3" font-family="Times,serif" font-size="14.00">Dislike</text>
<polyline fill="none" stroke="black" points="894,-686.5 1229,-686.5 "/>
<text text-anchor="start" x="902" y="-671.3" font-family="Times,serif" font-size="14.00">id :bigint</text>
<text text-anchor="start" x="902" y="-656.3" font-family="Times,serif" font-size="14.00">user_id :bigint</text>
<text text-anchor="start" x="902" y="-641.3" font-family="Times,serif" font-size="14.00">album_id :bigint</text>
<text text-anchor="start" x="902" y="-626.3" font-family="Times,serif" font-size="14.00">created_at :timestamp(6) without time zone</text>
<text text-anchor="start" x="902" y="-611.3" font-family="Times,serif" font-size="14.00">updated_at :timestamp(6) without time zone</text>
</g>
<!-- Album&#45;&gt;Dislike -->
<g id="edge5" class="edge">
<title>Album&#45;&gt;Dislike</title>
<path fill="none" stroke="#21348f" d="M915.54,-785.77C942.65,-761.95 970.55,-737.43 994.6,-716.29"/>
<polygon fill="#21348f" stroke="#21348f" points="915.44,-785.85 904.96,-789.08 911.69,-789.15 907.93,-792.46 907.93,-792.46 907.93,-792.46 911.69,-789.15 910.9,-795.84 915.44,-785.85 915.44,-785.85"/>
<polygon fill="#21348f" stroke="#21348f" points="994.76,-716.15 1005.24,-712.93 998.51,-712.85 1002.27,-709.55 1002.27,-709.55 1002.27,-709.55 998.51,-712.85 999.3,-706.17 994.76,-716.15 994.76,-716.15"/>
</g>
<!-- Like -->
<g id="node8" class="node">
<title>Like</title>
<path fill="none" stroke="black" d="M116,-603.5C116,-603.5 427,-603.5 427,-603.5 433,-603.5 439,-609.5 439,-615.5 439,-615.5 439,-697.5 439,-697.5 439,-703.5 433,-709.5 427,-709.5 427,-709.5 116,-709.5 116,-709.5 110,-709.5 104,-703.5 104,-697.5 104,-697.5 104,-615.5 104,-615.5 104,-609.5 110,-603.5 116,-603.5"/>
<text text-anchor="middle" x="271.5" y="-694.3" font-family="Times,serif" font-size="14.00">Like</text>
<polyline fill="none" stroke="black" points="104,-686.5 439,-686.5 "/>
<text text-anchor="start" x="112" y="-671.3" font-family="Times,serif" font-size="14.00">id :bigint</text>
<text text-anchor="start" x="112" y="-656.3" font-family="Times,serif" font-size="14.00">user_id :bigint</text>
<text text-anchor="start" x="112" y="-641.3" font-family="Times,serif" font-size="14.00">album_id :bigint</text>
<text text-anchor="start" x="112" y="-626.3" font-family="Times,serif" font-size="14.00">created_at :timestamp(6) without time zone</text>
<text text-anchor="start" x="112" y="-611.3" font-family="Times,serif" font-size="14.00">updated_at :timestamp(6) without time zone</text>
</g>
<!-- Album&#45;&gt;Like -->
<g id="edge4" class="edge">
<title>Album&#45;&gt;Like</title>
<path fill="none" stroke="#f208e1" d="M620.79,-792.11C620.7,-792.07 620.6,-792.04 620.5,-792 546.83,-764.52 521.13,-782.57 447.5,-755 418.84,-744.27 389.19,-729.47 362.58,-714.63"/>
<polygon fill="#f208e1" stroke="#f208e1" points="620.57,-792.02 628.27,-799.83 625.24,-793.83 629.9,-795.63 629.9,-795.63 629.9,-795.63 625.24,-793.83 631.52,-791.44 620.57,-792.02 620.57,-792.02"/>
<polygon fill="#f208e1" stroke="#f208e1" points="362.39,-714.53 355.89,-705.69 358.03,-712.07 353.68,-709.61 353.68,-709.61 353.68,-709.61 358.03,-712.07 351.47,-713.53 362.39,-714.53 362.39,-714.53"/>
</g>
<!-- Track -->
<g id="node10" class="node">
<title>Track</title>
<path fill="none" stroke="black" d="M1298,-558.5C1298,-558.5 1609,-558.5 1609,-558.5 1615,-558.5 1621,-564.5 1621,-570.5 1621,-570.5 1621,-742.5 1621,-742.5 1621,-748.5 1615,-754.5 1609,-754.5 1609,-754.5 1298,-754.5 1298,-754.5 1292,-754.5 1286,-748.5 1286,-742.5 1286,-742.5 1286,-570.5 1286,-570.5 1286,-564.5 1292,-558.5 1298,-558.5"/>
<text text-anchor="middle" x="1453.5" y="-739.3" font-family="Times,serif" font-size="14.00">Track</text>
<polyline fill="none" stroke="black" points="1286,-731.5 1621,-731.5 "/>
<text text-anchor="start" x="1294" y="-716.3" font-family="Times,serif" font-size="14.00">id :bigint</text>
<text text-anchor="start" x="1294" y="-701.3" font-family="Times,serif" font-size="14.00">name :character varying</text>
<text text-anchor="start" x="1294" y="-686.3" font-family="Times,serif" font-size="14.00">description :text</text>
<text text-anchor="start" x="1294" y="-671.3" font-family="Times,serif" font-size="14.00">source_link :character varying</text>
<text text-anchor="start" x="1294" y="-656.3" font-family="Times,serif" font-size="14.00">duration :time without time zone</text>
<text text-anchor="start" x="1294" y="-641.3" font-family="Times,serif" font-size="14.00">tags :character varying</text>
<text text-anchor="start" x="1294" y="-626.3" font-family="Times,serif" font-size="14.00">related_genres :character varying</text>
<text text-anchor="start" x="1294" y="-611.3" font-family="Times,serif" font-size="14.00">preview_picture :character varying</text>
<text text-anchor="start" x="1294" y="-596.3" font-family="Times,serif" font-size="14.00">created_at :timestamp(6) without time zone</text>
<text text-anchor="start" x="1294" y="-581.3" font-family="Times,serif" font-size="14.00">updated_at :timestamp(6) without time zone</text>
<text text-anchor="start" x="1294" y="-566.3" font-family="Times,serif" font-size="14.00">album_id :bigint</text>
</g>
<!-- Album&#45;&gt;Track -->
<g id="edge1" class="edge">
<title>Album&#45;&gt;Track</title>
<path fill="none" stroke="#4a8cbc" d="M975.11,-860.68C1066.06,-842.35 1177.2,-814.34 1271.5,-774 1281.77,-769.61 1292.12,-764.66 1302.38,-759.35"/>
<polygon fill="#4a8cbc" stroke="#4a8cbc" points="975.06,-860.69 964.37,-858.24 970.16,-861.67 965.25,-862.65 965.25,-862.65 965.25,-862.65 970.16,-861.67 966.13,-867.06 975.06,-860.69 975.06,-860.69"/>
<polygon fill="#4a8cbc" stroke="#4a8cbc" points="1302.53,-759.26 1313.47,-758.56 1306.95,-756.93 1311.37,-754.59 1311.37,-754.59 1311.37,-754.59 1306.95,-756.93 1309.26,-750.61 1302.53,-759.26 1302.53,-759.26"/>
</g>
<!-- User -->
<g id="node12" class="node">
<title>User</title>
<path fill="none" stroke="black" d="M433.5,-219.5C433.5,-219.5 815.5,-219.5 815.5,-219.5 821.5,-219.5 827.5,-225.5 827.5,-231.5 827.5,-231.5 827.5,-508.5 827.5,-508.5 827.5,-514.5 821.5,-520.5 815.5,-520.5 815.5,-520.5 433.5,-520.5 433.5,-520.5 427.5,-520.5 421.5,-514.5 421.5,-508.5 421.5,-508.5 421.5,-231.5 421.5,-231.5 421.5,-225.5 427.5,-219.5 433.5,-219.5"/>
<text text-anchor="middle" x="624.5" y="-505.3" font-family="Times,serif" font-size="14.00">User</text>
<polyline fill="none" stroke="black" points="421.5,-497.5 827.5,-497.5 "/>
<text text-anchor="start" x="429.5" y="-482.3" font-family="Times,serif" font-size="14.00">id :bigint</text>
<text text-anchor="start" x="429.5" y="-467.3" font-family="Times,serif" font-size="14.00">email :character varying</text>
<text text-anchor="start" x="429.5" y="-452.3" font-family="Times,serif" font-size="14.00">encrypted_password :character varying</text>
<text text-anchor="start" x="429.5" y="-437.3" font-family="Times,serif" font-size="14.00">reset_password_token :character varying</text>
<text text-anchor="start" x="429.5" y="-422.3" font-family="Times,serif" font-size="14.00">reset_password_sent_at :timestamp without time zone</text>
<text text-anchor="start" x="429.5" y="-407.3" font-family="Times,serif" font-size="14.00">remember_created_at :timestamp without time zone</text>
<text text-anchor="start" x="429.5" y="-392.3" font-family="Times,serif" font-size="14.00">created_at :timestamp(6) without time zone</text>
<text text-anchor="start" x="429.5" y="-377.3" font-family="Times,serif" font-size="14.00">updated_at :timestamp(6) without time zone</text>
<text text-anchor="start" x="429.5" y="-362.3" font-family="Times,serif" font-size="14.00">role :integer</text>
<text text-anchor="start" x="429.5" y="-347.3" font-family="Times,serif" font-size="14.00">confirmation_token :character varying</text>
<text text-anchor="start" x="429.5" y="-332.3" font-family="Times,serif" font-size="14.00">confirmed_at :timestamp without time zone</text>
<text text-anchor="start" x="429.5" y="-317.3" font-family="Times,serif" font-size="14.00">confirmation_sent_at :timestamp without time zone</text>
<text text-anchor="start" x="429.5" y="-302.3" font-family="Times,serif" font-size="14.00">unconfirmed_email :character varying</text>
<text text-anchor="start" x="429.5" y="-287.3" font-family="Times,serif" font-size="14.00">failed_attempts :integer</text>
<text text-anchor="start" x="429.5" y="-272.3" font-family="Times,serif" font-size="14.00">unlock_token :character varying</text>
<text text-anchor="start" x="429.5" y="-257.3" font-family="Times,serif" font-size="14.00">locked_at :timestamp without time zone</text>
<text text-anchor="start" x="429.5" y="-242.3" font-family="Times,serif" font-size="14.00">provider :character varying(50)</text>
<text text-anchor="start" x="429.5" y="-227.3" font-family="Times,serif" font-size="14.00">uid :character varying(500)</text>
</g>
<!-- Album&#45;&gt;User -->
<g id="edge3" class="edge">
<title>Album&#45;&gt;User</title>
<path fill="none" stroke="#20c1b3" d="M620,-792.74C529.7,-777.15 132.81,-796.1 94.5,-755 34.8,-690.95 43.93,-629.47 94.5,-558 166.17,-456.71 297.42,-409.91 411.37,-388.45"/>
<polygon fill="#20c1b3" stroke="#20c1b3" points="620.09,-792.76 628.87,-799.32 624.97,-793.84 629.85,-794.93 629.85,-794.93 629.85,-794.93 624.97,-793.84 630.83,-790.54 620.09,-792.76 620.09,-792.76"/>
<polygon fill="#20c1b3" stroke="#20c1b3" points="411.45,-388.44 422.1,-391.07 416.37,-387.54 421.29,-386.64 421.29,-386.64 421.29,-386.64 416.37,-387.54 420.48,-382.21 411.45,-388.44 411.45,-388.44"/>
</g>
<!-- UserAlbum -->
<g id="node13" class="node">
<title>UserAlbum</title>
<path fill="none" stroke="black" d="M962,-38C962,-38 1273,-38 1273,-38 1279,-38 1285,-44 1285,-50 1285,-50 1285,-132 1285,-132 1285,-138 1279,-144 1273,-144 1273,-144 962,-144 962,-144 956,-144 950,-138 950,-132 950,-132 950,-50 950,-50 950,-44 956,-38 962,-38"/>
<text text-anchor="middle" x="1117.5" y="-128.8" font-family="Times,serif" font-size="14.00">UserAlbum</text>
<polyline fill="none" stroke="black" points="950,-121 1285,-121 "/>
<text text-anchor="start" x="958" y="-105.8" font-family="Times,serif" font-size="14.00">id :bigint</text>
<text text-anchor="start" x="958" y="-90.8" font-family="Times,serif" font-size="14.00">user_id :bigint</text>
<text text-anchor="start" x="958" y="-75.8" font-family="Times,serif" font-size="14.00">album_id :bigint</text>
<text text-anchor="start" x="958" y="-60.8" font-family="Times,serif" font-size="14.00">created_at :timestamp(6) without time zone</text>
<text text-anchor="start" x="958" y="-45.8" font-family="Times,serif" font-size="14.00">updated_at :timestamp(6) without time zone</text>
</g>
<!-- Album&#45;&gt;UserAlbum -->
<g id="edge2" class="edge">
<title>Album&#45;&gt;UserAlbum</title>
<path fill="none" stroke="#345074" d="M975.31,-857.39C1082.8,-833.96 1205.16,-798.7 1237.5,-755 1308.03,-659.69 1191.61,-299.59 1140.1,-153.82"/>
<polygon fill="#345074" stroke="#345074" points="975.06,-857.45 964.34,-855.15 970.17,-858.5 965.29,-859.55 965.29,-859.55 965.29,-859.55 970.17,-858.5 966.23,-863.95 975.06,-857.45 975.06,-857.45"/>
<polygon fill="#345074" stroke="#345074" points="1140,-153.54 1140.89,-142.61 1138.33,-148.83 1136.65,-144.12 1136.65,-144.12 1136.65,-144.12 1138.33,-148.83 1132.41,-145.63 1140,-153.54 1140,-153.54"/>
</g>
<!-- Comment&#45;&gt;Comment -->
<g id="edge8" class="edge">
<title>Comment&#45;&gt;Comment</title>
<path fill="none" stroke="#04d1be" d="M801.9,-662.16C807.07,-660.62 810,-658.73 810,-656.5 810,-654.27 807.07,-652.38 801.9,-650.84"/>
<polygon fill="#04d1be" stroke="#04d1be" points="801.78,-662.19 791.06,-659.91 796.9,-663.25 792.01,-664.31 792.01,-664.31 792.01,-664.31 796.9,-663.25 792.96,-668.7 801.78,-662.19 801.78,-662.19"/>
<polygon fill="#04d1be" stroke="#04d1be" points="801.78,-650.81 792.96,-644.3 796.9,-649.75 792.01,-648.69 792.01,-648.69 792.01,-648.69 796.9,-649.75 791.06,-653.09 801.78,-650.81 801.78,-650.81"/>
<text text-anchor="middle" x="834" y="-652.8" font-family="Times,serif" font-size="14.00">parent</text>
</g>
<!-- Comment&#45;&gt;Comment -->
<g id="edge9" class="edge">
<title>Comment&#45;&gt;Comment</title>
<path fill="none" stroke="#296541" d="M802.4,-676.86C834.89,-674.12 858,-667.33 858,-656.5 858,-645.67 834.89,-638.88 802.4,-636.14"/>
<polygon fill="#296541" stroke="#296541" points="802.01,-676.88 791.72,-673.09 797.02,-677.23 792.03,-677.58 792.03,-677.58 792.03,-677.58 797.02,-677.23 792.35,-682.07 802.01,-676.88 802.01,-676.88"/>
<polygon fill="#296541" stroke="#296541" points="802.01,-636.12 792.35,-630.93 797.02,-635.77 792.03,-635.42 792.03,-635.42 792.03,-635.42 797.02,-635.77 791.72,-639.91 802.01,-636.12 802.01,-636.12"/>
</g>
<!-- Comment&#45;&gt;User -->
<g id="edge7" class="edge">
<title>Comment&#45;&gt;User</title>
<path fill="none" stroke="#13c9b6" d="M624.5,-578.36C624.5,-563.47 624.5,-547.37 624.5,-530.95"/>
<polygon fill="#13c9b6" stroke="#13c9b6" points="624.5,-578.44 620,-588.44 624.5,-583.44 624.5,-588.44 624.5,-588.44 624.5,-588.44 624.5,-583.44 629,-588.44 624.5,-578.44 624.5,-578.44"/>
<polygon fill="#13c9b6" stroke="#13c9b6" points="624.5,-530.69 629,-520.69 624.5,-525.69 624.5,-520.69 624.5,-520.69 624.5,-520.69 624.5,-525.69 620,-520.69 624.5,-530.69 624.5,-530.69"/>
</g>
<!-- Dislike&#45;&gt;User -->
<g id="edge10" class="edge">
<title>Dislike&#45;&gt;User</title>
<path fill="none" stroke="#6415c2" d="M973.04,-597.91C933.23,-571.99 884.36,-540.17 835.95,-508.66"/>
<polygon fill="#6415c2" stroke="#6415c2" points="973.22,-598.03 979.15,-607.26 977.41,-600.76 981.6,-603.48 981.6,-603.48 981.6,-603.48 977.41,-600.76 984.06,-599.71 973.22,-598.03 973.22,-598.03"/>
<polygon fill="#6415c2" stroke="#6415c2" points="835.93,-508.65 830.01,-499.42 831.74,-505.92 827.55,-503.19 827.55,-503.19 827.55,-503.19 831.74,-505.92 825.1,-506.96 835.93,-508.65 835.93,-508.65"/>
</g>
<!-- Genre -->
<g id="node7" class="node">
<title>Genre</title>
<path fill="none" stroke="black" d="M1651,-611C1651,-611 1962,-611 1962,-611 1968,-611 1974,-617 1974,-623 1974,-623 1974,-690 1974,-690 1974,-696 1968,-702 1962,-702 1962,-702 1651,-702 1651,-702 1645,-702 1639,-696 1639,-690 1639,-690 1639,-623 1639,-623 1639,-617 1645,-611 1651,-611"/>
<text text-anchor="middle" x="1806.5" y="-686.8" font-family="Times,serif" font-size="14.00">Genre</text>
<polyline fill="none" stroke="black" points="1639,-679 1974,-679 "/>
<text text-anchor="start" x="1647" y="-663.8" font-family="Times,serif" font-size="14.00">id :bigint</text>
<text text-anchor="start" x="1647" y="-648.8" font-family="Times,serif" font-size="14.00">name :character varying</text>
<text text-anchor="start" x="1647" y="-633.8" font-family="Times,serif" font-size="14.00">created_at :timestamp(6) without time zone</text>
<text text-anchor="start" x="1647" y="-618.8" font-family="Times,serif" font-size="14.00">updated_at :timestamp(6) without time zone</text>
</g>
<!-- Like&#45;&gt;User -->
<g id="edge11" class="edge">
<title>Like&#45;&gt;User</title>
<path fill="none" stroke="#127ae1" d="M344.32,-596.81C369.97,-576.14 400.14,-551.82 431.01,-526.94"/>
<polygon fill="#127ae1" stroke="#127ae1" points="344.03,-597.04 333.42,-599.81 340.14,-600.18 336.25,-603.32 336.25,-603.32 336.25,-603.32 340.14,-600.18 339.07,-606.82 344.03,-597.04 344.03,-597.04"/>
<polygon fill="#127ae1" stroke="#127ae1" points="431.08,-526.88 441.69,-524.11 434.98,-523.75 438.87,-520.61 438.87,-520.61 438.87,-520.61 434.98,-523.75 436.05,-517.1 431.08,-526.88 431.08,-526.88"/>
</g>
<!-- Role -->
<g id="node9" class="node">
<title>Role</title>
<path fill="none" stroke="black" d="M2061,-845C2061,-845 2372,-845 2372,-845 2378,-845 2384,-851 2384,-857 2384,-857 2384,-924 2384,-924 2384,-930 2378,-936 2372,-936 2372,-936 2061,-936 2061,-936 2055,-936 2049,-930 2049,-924 2049,-924 2049,-857 2049,-857 2049,-851 2055,-845 2061,-845"/>
<text text-anchor="middle" x="2216.5" y="-920.8" font-family="Times,serif" font-size="14.00">Role</text>
<polyline fill="none" stroke="black" points="2049,-913 2384,-913 "/>
<text text-anchor="start" x="2057" y="-897.8" font-family="Times,serif" font-size="14.00">id :bigint</text>
<text text-anchor="start" x="2057" y="-882.8" font-family="Times,serif" font-size="14.00">name :character varying</text>
<text text-anchor="start" x="2057" y="-867.8" font-family="Times,serif" font-size="14.00">created_at :timestamp(6) without time zone</text>
<text text-anchor="start" x="2057" y="-852.8" font-family="Times,serif" font-size="14.00">updated_at :timestamp(6) without time zone</text>
</g>
<!-- User&#45;&gt;UserAlbum -->
<g id="edge14" class="edge">
<title>User&#45;&gt;UserAlbum</title>
<path fill="none" stroke="#8c2af9" d="M836.36,-249.96C898.64,-214.97 963.92,-178.29 1015.88,-149.1"/>
<polygon fill="#8c2af9" stroke="#8c2af9" points="836.23,-250.04 825.31,-251.01 831.87,-252.49 827.51,-254.93 827.51,-254.93 827.51,-254.93 831.87,-252.49 829.72,-258.86 836.23,-250.04 836.23,-250.04"/>
<polygon fill="#8c2af9" stroke="#8c2af9" points="1016.04,-149 1026.97,-148.03 1020.4,-146.56 1024.76,-144.11 1024.76,-144.11 1024.76,-144.11 1020.4,-146.56 1022.56,-140.18 1016.04,-149 1016.04,-149"/>
</g>
<!-- UserProfile -->
<g id="node14" class="node">
<title>UserProfile</title>
<path fill="none" stroke="black" d="M469,-0.5C469,-0.5 780,-0.5 780,-0.5 786,-0.5 792,-6.5 792,-12.5 792,-12.5 792,-169.5 792,-169.5 792,-175.5 786,-181.5 780,-181.5 780,-181.5 469,-181.5 469,-181.5 463,-181.5 457,-175.5 457,-169.5 457,-169.5 457,-12.5 457,-12.5 457,-6.5 463,-0.5 469,-0.5"/>
<text text-anchor="middle" x="624.5" y="-166.3" font-family="Times,serif" font-size="14.00">UserProfile</text>
<polyline fill="none" stroke="black" points="457,-158.5 792,-158.5 "/>
<text text-anchor="start" x="465" y="-143.3" font-family="Times,serif" font-size="14.00">id :bigint</text>
<text text-anchor="start" x="465" y="-128.3" font-family="Times,serif" font-size="14.00">avatar :character varying</text>
<text text-anchor="start" x="465" y="-113.3" font-family="Times,serif" font-size="14.00">name :character varying</text>
<text text-anchor="start" x="465" y="-98.3" font-family="Times,serif" font-size="14.00">surname :character varying</text>
<text text-anchor="start" x="465" y="-83.3" font-family="Times,serif" font-size="14.00">nickname :character varying</text>
<text text-anchor="start" x="465" y="-68.3" font-family="Times,serif" font-size="14.00">date_of_birthday :date</text>
<text text-anchor="start" x="465" y="-53.3" font-family="Times,serif" font-size="14.00">user_id :bigint</text>
<text text-anchor="start" x="465" y="-38.3" font-family="Times,serif" font-size="14.00">created_at :timestamp(6) without time zone</text>
<text text-anchor="start" x="465" y="-23.3" font-family="Times,serif" font-size="14.00">updated_at :timestamp(6) without time zone</text>
<text text-anchor="start" x="465" y="-8.3" font-family="Times,serif" font-size="14.00">address :character varying</text>
</g>
<!-- User&#45;&gt;UserProfile -->
<g id="edge15" class="edge">
<title>User&#45;&gt;UserProfile</title>
<path fill="none" stroke="#988398" d="M624.5,-209.03C624.5,-203.22 624.5,-197.47 624.5,-191.81"/>
<polygon fill="#988398" stroke="#988398" points="624.5,-209.15 620,-219.15 624.5,-214.15 624.5,-219.15 624.5,-219.15 624.5,-219.15 624.5,-214.15 629,-219.15 624.5,-209.15 624.5,-209.15"/>
<polygon fill="#988398" stroke="#988398" points="624.5,-191.73 629,-181.73 624.5,-186.73 624.5,-181.73 624.5,-181.73 624.5,-181.73 624.5,-186.73 620,-181.73 624.5,-191.73 624.5,-191.73"/>
</g>
</g>
</svg>
