<?xml version="1.0" encoding="UTF-8" standalone="no"?>
<!DOCTYPE svg PUBLIC "-//W3C//DTD SVG 1.1//EN"
 "http://www.w3.org/Graphics/SVG/1.1/DTD/svg11.dtd">
<!-- Generated by graphviz version 2.43.0 (0)
 -->
<!-- Title: models_diagram Pages: 1 -->
<svg width="1162pt" height="305pt"
 viewBox="0.00 0.00 1161.70 305.00" xmlns="http://www.w3.org/2000/svg" xmlns:xlink="http://www.w3.org/1999/xlink">
<g id="graph0" class="graph" transform="scale(1 1) rotate(0) translate(4 301)">
<title>models_diagram</title>
<polygon fill="transparent" stroke="transparent" points="-4,4 -4,-301 1157.7,-301 1157.7,4 -4,4"/>
<!-- _diagram_info -->
<g id="node1" class="node">
<title>_diagram_info</title>
<text text-anchor="start" x="8" y="-282.6" font-family="Times,serif" font-size="13.00">Models diagram</text>
<text text-anchor="start" x="8" y="-268.6" font-family="Times,serif" font-size="13.00">Date: Jan 24 2022 &#45; 05:25</text>
<text text-anchor="start" x="8" y="-254.6" font-family="Times,serif" font-size="13.00">Migration version: 20220109121358</text>
<text text-anchor="start" x="8" y="-240.6" font-family="Times,serif" font-size="13.00">Generated by RailRoady 1.6.0</text>
<text text-anchor="start" x="8" y="-226.6" font-family="Times,serif" font-size="13.00">http://railroady.prestonlee.com</text>
</g>
<!-- AgeRestriction -->
<g id="node2" class="node">
<title>AgeRestriction</title>
<ellipse fill="none" stroke="black" cx="356.5" cy="-258" rx="79.09" ry="18"/>
<text text-anchor="middle" x="356.5" y="-254.3" font-family="Times,serif" font-size="14.00">AgeRestriction</text>
</g>
<!-- Album -->
<g id="node3" class="node">
<title>Album</title>
<ellipse fill="none" stroke="black" cx="494.5" cy="-258" rx="40.09" ry="18"/>
<text text-anchor="middle" x="494.5" y="-254.3" font-family="Times,serif" font-size="14.00">Album</text>
</g>
<!-- Comment -->
<g id="node5" class="node">
<title>Comment</title>
<ellipse fill="none" stroke="black" cx="410.5" cy="-164" rx="55.79" ry="18"/>
<text text-anchor="middle" x="410.5" y="-160.3" font-family="Times,serif" font-size="14.00">Comment</text>
</g>
<!-- Album&#45;&gt;Comment -->
<g id="edge6" class="edge">
<title>Album&#45;&gt;Comment</title>
<path fill="none" stroke="#2c3099" d="M472.99,-233.44C460.57,-219.83 444.98,-202.77 432.48,-189.08"/>
<polygon fill="#2c3099" stroke="#2c3099" points="473.13,-233.59 476.55,-244.01 476.5,-237.28 479.87,-240.97 479.87,-240.97 479.87,-240.97 476.5,-237.28 483.19,-237.94 473.13,-233.59 473.13,-233.59"/>
<polygon fill="#2c3099" stroke="#2c3099" points="432.27,-188.85 428.85,-178.43 428.9,-185.15 425.53,-181.46 425.53,-181.46 425.53,-181.46 428.9,-185.15 422.21,-184.5 432.27,-188.85 432.27,-188.85"/>
</g>
<!-- Dislike -->
<g id="node6" class="node">
<title>Dislike</title>
<ellipse fill="none" stroke="black" cx="610.5" cy="-164" rx="42.49" ry="18"/>
<text text-anchor="middle" x="610.5" y="-160.3" font-family="Times,serif" font-size="14.00">Dislike</text>
</g>
<!-- Album&#45;&gt;Dislike -->
<g id="edge5" class="edge">
<title>Album&#45;&gt;Dislike</title>
<path fill="none" stroke="#86250d" d="M521.44,-235.63C540.06,-220.87 564.73,-201.3 583.38,-186.51"/>
<polygon fill="#86250d" stroke="#86250d" points="521.23,-235.8 510.6,-238.49 517.31,-238.91 513.4,-242.01 513.4,-242.01 513.4,-242.01 517.31,-238.91 516.19,-245.54 521.23,-235.8 521.23,-235.8"/>
<polygon fill="#86250d" stroke="#86250d" points="583.39,-186.5 594.02,-183.81 587.31,-183.39 591.23,-180.29 591.23,-180.29 591.23,-180.29 587.31,-183.39 588.43,-176.76 583.39,-186.5 583.39,-186.5"/>
</g>
<!-- Like -->
<g id="node8" class="node">
<title>Like</title>
<ellipse fill="none" stroke="black" cx="306.5" cy="-164" rx="30.59" ry="18"/>
<text text-anchor="middle" x="306.5" y="-160.3" font-family="Times,serif" font-size="14.00">Like</text>
</g>
<!-- Album&#45;&gt;Like -->
<g id="edge4" class="edge">
<title>Album&#45;&gt;Like</title>
<path fill="none" stroke="#012d05" d="M468.57,-235.02C461.1,-229.33 452.74,-223.54 444.5,-219 403.36,-196.33 389.05,-199.61 345.5,-182 343.65,-181.25 341.76,-180.47 339.85,-179.68"/>
<polygon fill="#012d05" stroke="#012d05" points="469.01,-235.37 474.07,-245.1 472.94,-238.47 476.86,-241.57 476.86,-241.57 476.86,-241.57 472.94,-238.47 479.65,-238.04 469.01,-235.37 469.01,-235.37"/>
<polygon fill="#012d05" stroke="#012d05" points="339.54,-179.55 332.1,-171.49 334.94,-177.59 330.34,-175.63 330.34,-175.63 330.34,-175.63 334.94,-177.59 328.58,-179.77 339.54,-179.55 339.54,-179.55"/>
</g>
<!-- Track -->
<g id="node10" class="node">
<title>Track</title>
<ellipse fill="none" stroke="black" cx="744.5" cy="-164" rx="36.29" ry="18"/>
<text text-anchor="middle" x="744.5" y="-160.3" font-family="Times,serif" font-size="14.00">Track</text>
</g>
<!-- Album&#45;&gt;Track -->
<g id="edge1" class="edge">
<title>Album&#45;&gt;Track</title>
<path fill="none" stroke="#26af07" d="M541.52,-248.7C583.14,-240.23 644.82,-224.91 694.5,-201 702.81,-197 711.2,-191.61 718.67,-186.22"/>
<polygon fill="#26af07" stroke="#26af07" points="541.46,-248.71 530.78,-246.24 536.56,-249.68 531.65,-250.65 531.65,-250.65 531.65,-250.65 536.56,-249.68 532.53,-255.07 541.46,-248.71 541.46,-248.71"/>
<polygon fill="#26af07" stroke="#26af07" points="718.97,-185.99 729.66,-183.57 722.96,-182.98 726.95,-179.97 726.95,-179.97 726.95,-179.97 722.96,-182.98 724.24,-176.38 718.97,-185.99 718.97,-185.99"/>
</g>
<!-- User -->
<g id="node12" class="node">
<title>User</title>
<ellipse fill="none" stroke="black" cx="410.5" cy="-91" rx="33.29" ry="18"/>
<text text-anchor="middle" x="410.5" y="-87.3" font-family="Times,serif" font-size="14.00">User</text>
</g>
<!-- Album&#45;&gt;User -->
<g id="edge3" class="edge">
<title>Album&#45;&gt;User</title>
<path fill="none" stroke="#2c6a23" d="M469.85,-234.84C462.18,-228.92 453.39,-223.05 444.5,-219 370.97,-185.51 317.49,-244.68 266.5,-182 233.29,-141.18 316.4,-113.53 369.76,-100.53"/>
<polygon fill="#2c6a23" stroke="#2c6a23" points="469.93,-234.9 474.86,-244.69 473.81,-238.05 477.69,-241.2 477.69,-241.2 477.69,-241.2 473.81,-238.05 480.53,-237.7 469.93,-234.9 469.93,-234.9"/>
<polygon fill="#2c6a23" stroke="#2c6a23" points="369.94,-100.49 380.7,-102.58 374.81,-99.34 379.67,-98.2 379.67,-98.2 379.67,-98.2 374.81,-99.34 378.64,-93.82 369.94,-100.49 369.94,-100.49"/>
</g>
<!-- UserAlbum -->
<g id="node13" class="node">
<title>UserAlbum</title>
<ellipse fill="none" stroke="black" cx="618.5" cy="-18" rx="63.09" ry="18"/>
<text text-anchor="middle" x="618.5" y="-14.3" font-family="Times,serif" font-size="14.00">UserAlbum</text>
</g>
<!-- Album&#45;&gt;UserAlbum -->
<g id="edge2" class="edge">
<title>Album&#45;&gt;UserAlbum</title>
<path fill="none" stroke="#81d8f7" d="M542.68,-249.81C582.1,-241.11 635.45,-222.26 661.5,-182 689.38,-138.92 658.9,-78.39 636.92,-44.52"/>
<polygon fill="#81d8f7" stroke="#81d8f7" points="542.53,-249.84 531.82,-247.45 537.63,-250.85 532.73,-251.86 532.73,-251.86 532.73,-251.86 537.63,-250.85 533.64,-256.27 542.53,-249.84 542.53,-249.84"/>
<polygon fill="#81d8f7" stroke="#81d8f7" points="636.85,-44.42 635.02,-33.61 634.07,-40.26 631.28,-36.11 631.28,-36.11 631.28,-36.11 634.07,-40.26 627.54,-38.62 636.85,-44.42 636.85,-44.42"/>
</g>
<!-- ApplicationRecord -->
<g id="node4" class="node">
<title>ApplicationRecord</title>
<ellipse fill="none" stroke="black" cx="977.5" cy="-258" rx="95.58" ry="18"/>
<text text-anchor="middle" x="977.5" y="-254.3" font-family="Times,serif" font-size="14.00">ApplicationRecord</text>
</g>
<!-- Comment&#45;&gt;Comment -->
<g id="edge8" class="edge">
<title>Comment&#45;&gt;Comment</title>
<path fill="none" stroke="#6e3465" d="M475.61,-166.61C481.03,-166.05 484.4,-165.18 484.4,-164 484.4,-162.82 481.03,-161.95 475.61,-161.39"/>
<polygon fill="#6e3465" stroke="#6e3465" points="475.59,-166.61 465.32,-162.74 470.6,-166.92 465.61,-167.24 465.61,-167.24 465.61,-167.24 470.6,-166.92 465.89,-171.73 475.59,-166.61 475.59,-166.61"/>
<polygon fill="#6e3465" stroke="#6e3465" points="475.59,-161.39 465.89,-156.27 470.6,-161.08 465.61,-160.76 465.61,-160.76 465.61,-160.76 470.6,-161.08 465.32,-165.26 475.59,-161.39 475.59,-161.39"/>
<text text-anchor="middle" x="508.4" y="-160.3" font-family="Times,serif" font-size="14.00">parent</text>
</g>
<!-- Comment&#45;&gt;Comment -->
<g id="edge9" class="edge">
<title>Comment&#45;&gt;Comment</title>
<path fill="none" stroke="#6b751c" d="M472.85,-170.65C503.55,-171.27 532.4,-169.06 532.4,-164 532.4,-158.94 503.55,-156.73 472.85,-157.35"/>
<polygon fill="#6b751c" stroke="#6b751c" points="472.85,-170.65 462.99,-165.84 467.85,-170.49 462.85,-170.34 462.85,-170.34 462.85,-170.34 467.85,-170.49 462.71,-174.84 472.85,-170.65 472.85,-170.65"/>
<polygon fill="#6b751c" stroke="#6b751c" points="472.85,-157.35 462.71,-153.16 467.85,-157.51 462.85,-157.66 462.85,-157.66 462.85,-157.66 467.85,-157.51 462.99,-162.16 472.85,-157.35 472.85,-157.35"/>
</g>
<!-- Comment&#45;&gt;User -->
<g id="edge7" class="edge">
<title>Comment&#45;&gt;User</title>
<path fill="none" stroke="#bc275a" d="M410.5,-135.75C410.5,-130.28 410.5,-124.52 410.5,-119.05"/>
<polygon fill="#bc275a" stroke="#bc275a" points="410.5,-135.81 406,-145.81 410.5,-140.81 410.5,-145.81 410.5,-145.81 410.5,-145.81 410.5,-140.81 415,-145.81 410.5,-135.81 410.5,-135.81"/>
<polygon fill="#bc275a" stroke="#bc275a" points="410.5,-119.03 415,-109.03 410.5,-114.03 410.5,-109.03 410.5,-109.03 410.5,-109.03 410.5,-114.03 406,-109.03 410.5,-119.03 410.5,-119.03"/>
</g>
<!-- Dislike&#45;&gt;User -->
<g id="edge10" class="edge">
<title>Dislike&#45;&gt;User</title>
<path fill="none" stroke="#a0eae8" d="M569.21,-148.34C533.3,-135.59 481.75,-117.29 447.24,-105.04"/>
<polygon fill="#a0eae8" stroke="#a0eae8" points="569.39,-148.4 577.3,-155.99 574.1,-150.08 578.81,-151.75 578.81,-151.75 578.81,-151.75 574.1,-150.08 580.31,-147.51 569.39,-148.4 569.39,-148.4"/>
<polygon fill="#a0eae8" stroke="#a0eae8" points="446.98,-104.95 439.06,-97.36 442.26,-103.28 437.55,-101.6 437.55,-101.6 437.55,-101.6 442.26,-103.28 436.05,-105.84 446.98,-104.95 446.98,-104.95"/>
</g>
<!-- Genre -->
<g id="node7" class="node">
<title>Genre</title>
<ellipse fill="none" stroke="black" cx="837.5" cy="-164" rx="38.99" ry="18"/>
<text text-anchor="middle" x="837.5" y="-160.3" font-family="Times,serif" font-size="14.00">Genre</text>
</g>
<!-- Like&#45;&gt;User -->
<g id="edge11" class="edge">
<title>Like&#45;&gt;User</title>
<path fill="none" stroke="#cc4c38" d="M334.35,-143.99C349.2,-133.85 367.43,-121.4 382.33,-111.23"/>
<polygon fill="#cc4c38" stroke="#cc4c38" points="334.32,-144.01 323.52,-145.93 330.19,-146.83 326.06,-149.65 326.06,-149.65 326.06,-149.65 330.19,-146.83 328.6,-153.36 334.32,-144.01 334.32,-144.01"/>
<polygon fill="#cc4c38" stroke="#cc4c38" points="382.41,-111.17 393.21,-109.25 386.54,-108.36 390.67,-105.54 390.67,-105.54 390.67,-105.54 386.54,-108.36 388.14,-101.82 382.41,-111.17 382.41,-111.17"/>
</g>
<!-- Role -->
<g id="node9" class="node">
<title>Role</title>
<ellipse fill="none" stroke="black" cx="1122.5" cy="-258" rx="31.4" ry="18"/>
<text text-anchor="middle" x="1122.5" y="-254.3" font-family="Times,serif" font-size="14.00">Role</text>
</g>
<!-- TrackGenre -->
<g id="node11" class="node">
<title>TrackGenre</title>
<ellipse fill="none" stroke="black" cx="798.5" cy="-258" rx="64.99" ry="18"/>
<text text-anchor="middle" x="798.5" y="-254.3" font-family="Times,serif" font-size="14.00">TrackGenre</text>
</g>
<!-- TrackGenre&#45;&gt;Genre -->
<g id="edge13" class="edge">
<title>TrackGenre&#45;&gt;Genre</title>
<path fill="none" stroke="#acc996" d="M809.92,-230.07C815.07,-217.91 821.15,-203.58 826.28,-191.47"/>
<polygon fill="#acc996" stroke="#acc996" points="809.74,-230.49 801.69,-237.94 807.79,-235.09 805.84,-239.7 805.84,-239.7 805.84,-239.7 807.79,-235.09 809.98,-241.45 809.74,-230.49 809.74,-230.49"/>
<polygon fill="#acc996" stroke="#acc996" points="826.43,-191.12 834.47,-183.67 828.38,-186.52 830.33,-181.92 830.33,-181.92 830.33,-181.92 828.38,-186.52 826.19,-180.16 826.43,-191.12 826.43,-191.12"/>
</g>
<!-- TrackGenre&#45;&gt;Track -->
<g id="edge12" class="edge">
<title>TrackGenre&#45;&gt;Track</title>
<path fill="none" stroke="#cf0a8e" d="M783.4,-231.28C775.87,-218.44 766.78,-202.97 759.29,-190.2"/>
<polygon fill="#cf0a8e" stroke="#cf0a8e" points="783.53,-231.5 784.71,-242.4 786.06,-235.81 788.6,-240.13 788.6,-240.13 788.6,-240.13 786.06,-235.81 792.48,-237.85 783.53,-231.5 783.53,-231.5"/>
<polygon fill="#cf0a8e" stroke="#cf0a8e" points="759.22,-190.08 758.04,-179.18 756.69,-185.77 754.16,-181.46 754.16,-181.46 754.16,-181.46 756.69,-185.77 750.28,-183.74 759.22,-190.08 759.22,-190.08"/>
</g>
<!-- User&#45;&gt;UserAlbum -->
<g id="edge14" class="edge">
<title>User&#45;&gt;UserAlbum</title>
<path fill="none" stroke="#4969e6" d="M447.6,-77.34C481.79,-65.67 532.73,-48.28 570.1,-35.52"/>
<polygon fill="#4969e6" stroke="#4969e6" points="447.58,-77.34 436.67,-76.31 442.85,-78.96 438.12,-80.57 438.12,-80.57 438.12,-80.57 442.85,-78.96 439.57,-84.83 447.58,-77.34 447.58,-77.34"/>
<polygon fill="#4969e6" stroke="#4969e6" points="570.31,-35.45 581.23,-36.48 575.04,-33.83 579.78,-32.22 579.78,-32.22 579.78,-32.22 575.04,-33.83 578.32,-27.96 570.31,-35.45 570.31,-35.45"/>
</g>
<!-- UserProfile -->
<g id="node14" class="node">
<title>UserProfile</title>
<ellipse fill="none" stroke="black" cx="410.5" cy="-18" rx="63.89" ry="18"/>
<text text-anchor="middle" x="410.5" y="-14.3" font-family="Times,serif" font-size="14.00">UserProfile</text>
</g>
<!-- User&#45;&gt;UserProfile -->
<g id="edge15" class="edge">
<title>User&#45;&gt;UserProfile</title>
<path fill="none" stroke="#d52ffd" d="M410.5,-62.75C410.5,-57.28 410.5,-51.52 410.5,-46.05"/>
<polygon fill="#d52ffd" stroke="#d52ffd" points="410.5,-62.81 406,-72.81 410.5,-67.81 410.5,-72.81 410.5,-72.81 410.5,-72.81 410.5,-67.81 415,-72.81 410.5,-62.81 410.5,-62.81"/>
<polygon fill="#d52ffd" stroke="#d52ffd" points="410.5,-46.03 415,-36.03 410.5,-41.03 410.5,-36.03 410.5,-36.03 410.5,-36.03 410.5,-41.03 406,-36.03 410.5,-46.03 410.5,-46.03"/>
</g>
</g>
</svg>
